<svg xmlns="http://www.w3.org/2000/svg" width="35.908" height="35.67" viewBox="0 0 35.908 35.67">
    <defs>
        <style>
            .cls-2{fill:#f4ae11}
        </style>
    </defs>
    <g id="Group_1863" transform="translate(0 0)">
        <circle id="Ellipse_125" cx="15.695" cy="15.695" r="15.695" fill="#ffefcc" transform="translate(0 4.281)"/>
        <g id="Group_1861" transform="translate(4.526 1.175)">
            <path id="Path_1157" d="M16.692 32.039a15.266 15.266 0 0 1-6.135-1.284 15.608 15.608 0 0 1-8.275-20.547 15.4 15.4 0 0 1 8.133-8.276A1.405 1.405 0 1 1 11.556 4.5a13.627 13.627 0 0 0-6.706 6.85 12.849 12.849 0 0 0 6.85 16.836 12.426 12.426 0 0 0 9.845 0 12.664 12.664 0 0 0 6.991-6.849 1.405 1.405 0 1 1 2.564 1.142 15.489 15.489 0 0 1-8.558 8.421 16.413 16.413 0 0 1-5.85 1.139z" class="cls-2" transform="translate(-1.006 -1.823)"/>
        </g>
        <g id="Group_1862" transform="translate(18.786 0)">
            <path id="Path_1158" d="M26.7 18.122H12.427A1.348 1.348 0 0 1 11 16.7V2.427A1.348 1.348 0 0 1 12.427 1a15.65 15.65 0 0 1 15.7 15.7 1.348 1.348 0 0 1-1.427 1.422zm-12.846-2.854h11.272A12.744 12.744 0 0 0 13.854 4z" class="cls-2" transform="translate(-11 -1)"/>
        </g>
    </g>
</svg>
